<mxfile host="app.diagrams.net" modified="2024-04-19T15:13:41.613Z" agent="Mozilla/5.0 (Macintosh; Intel Mac OS X 10_15_7) AppleWebKit/537.36 (KHTML, like Gecko) Chrome/123.0.0.0 Safari/537.36" version="24.2.5" etag="eaLNyAi23uq_5oaTs_mR" type="github">
  <diagram name="Страница — 1" id="Yu0iMR2IUlxV8wK-VmuY">
    <mxGraphModel>
      <root>
        <mxCell id="0" />
        <mxCell id="1" parent="0" />
      </root>
    </mxGraphModel>
  </diagram>
</mxfile>
